<?xml version="1.0" encoding="utf-8"?>
<!-- Generator: Adobe Illustrator 25.2.0, SVG Export Plug-In . SVG Version: 6.00 Build 0)  -->
<svg version="1.1" id="Layer_1" xmlns="http://www.w3.org/2000/svg" xmlns:xlink="http://www.w3.org/1999/xlink" x="0px" y="0px"
	 viewBox="0 0 200 200" style="enable-background:new 0 0 200 200;" xml:space="preserve">
<style type="text/css">
	.st0{fill:#E53A35;}
	.st1{clip-path:url(#SVGID_2_);}
	.st2{fill:#FFFFFF;}
	.st3{fill:none;stroke:#FFFFFF;stroke-width:5;stroke-miterlimit:10;}
	.st4{fill:none;stroke:#FFFFFF;stroke-width:4;stroke-miterlimit:10;}
	.st5{fill:none;stroke:#FFFFFF;stroke-width:6;stroke-miterlimit:10;}
</style>
<path class="st0" d="M186.85,199.91H13.15c-7.21,0-13.06-5.85-13.06-13.06V13.15C0.1,5.94,5.94,0.1,13.15,0.1h173.7
	c7.21,0,13.06,5.85,13.06,13.06v173.7C199.91,194.06,194.06,199.91,186.85,199.91z"/>
<g>
	<defs>
		<path id="SVGID_1_" d="M186.89,199.91H13.11c-7.19,0-13.01-5.83-13.01-13.01V13.11C0.1,5.92,5.92,0.1,13.11,0.1h173.78
			c7.19,0,13.01,5.83,13.01,13.01v173.78C199.91,194.08,194.08,199.91,186.89,199.91z"/>
	</defs>
	<clipPath id="SVGID_2_">
		<use xlink:href="#SVGID_1_"  style="overflow:visible;"/>
	</clipPath>
	<g class="st1">
		<circle class="st2" cx="130.39" cy="-20.94" r="11.29"/>
		<line class="st3" x1="130.2" y1="-16.94" x2="125.35" y2="16.19"/>
		<g>
			<circle class="st2" cx="215.65" cy="189.16" r="8.1"/>
			<line class="st4" x1="199.94" y1="160.01" x2="215.65" y2="189.16"/>
			<g>
				<circle class="st2" cx="262.57" cy="117.98" r="8.1"/>
				<line class="st4" x1="230.15" y1="111.78" x2="262.7" y2="117.9"/>
				<g>
					<polygon class="st5" points="120.96,108.92 145.77,154.97 198.05,156.5 225.53,111.99 200.72,65.94 148.43,64.41 					"/>
					<circle class="st2" cx="147.57" cy="152.37" r="14.37"/>
					<circle class="st2" cx="123.63" cy="109.83" r="14.37"/>
					<circle class="st2" cx="224.36" cy="109.83" r="14.37"/>
					<circle class="st2" cx="201.88" cy="68.11" r="14.37"/>
					<circle class="st2" cx="196.84" cy="154.25" r="14.37"/>
					<circle class="st2" cx="149.65" cy="66.66" r="14.37"/>
					<circle class="st2" cx="133.1" cy="188.29" r="8.1"/>
					<line class="st4" x1="145.1" y1="157.54" x2="132.96" y2="188.35"/>
					<circle class="st2" cx="216.29" cy="32.86" r="8.1"/>
					<line class="st4" x1="204.3" y1="63.61" x2="216.43" y2="32.8"/>
					<circle class="st2" cx="123.63" cy="25.42" r="14.53"/>
					<circle class="st2" cx="76" cy="15.19" r="11.29"/>
					<circle class="st2" cx="68.85" cy="46.81" r="8.19"/>
					<line class="st3" x1="82.03" y1="17.39" x2="114.85" y2="24.01"/>
					<line class="st3" x1="75.34" y1="14.08" x2="68.71" y2="46.9"/>
					<line class="st5" x1="127.99" y1="30.92" x2="146.01" y2="63.37"/>
					<circle class="st2" cx="79.95" cy="126.68" r="11.94"/>
					<line class="st5" x1="83.67" y1="124.67" x2="116.33" y2="110.99"/>
					<line class="st5" x1="65.25" y1="165" x2="76.16" y2="131.31"/>
					<circle class="st2" cx="64.28" cy="170.66" r="14.37"/>
					<circle class="st2" cx="98.05" cy="203.09" r="11.94"/>
					<line class="st5" x1="94.65" y1="200.57" x2="68.43" y2="176.78"/>
					<circle class="st2" cx="23.55" cy="189.4" r="14.37"/>
					<line class="st5" x1="62.81" y1="172.8" x2="29.66" y2="185.24"/>
					<line class="st4" x1="21.22" y1="192.91" x2="25.88" y2="226.07"/>
					<line class="st4" x1="19.87" y1="193.3" x2="-6.23" y2="214.26"/>
					<line class="st4" x1="-14.43" y1="179.59" x2="18.1" y2="187.5"/>
					<circle class="st2" cx="25.84" cy="227.46" r="8.1"/>
					<circle class="st2" cx="-7.52" cy="215.29" r="8.1"/>
					<circle class="st2" cx="-13.06" cy="179.02" r="8.1"/>
				</g>
			</g>
		</g>
	</g>
</g>
</svg>
