<?xml version="1.0" encoding="utf-8"?>
<!-- Generator: Adobe Illustrator 25.2.0, SVG Export Plug-In . SVG Version: 6.00 Build 0)  -->
<svg version="1.1" id="Layer_1" xmlns="http://www.w3.org/2000/svg" xmlns:xlink="http://www.w3.org/1999/xlink" x="0px" y="0px"
	 viewBox="0 0 200 200" style="enable-background:new 0 0 200 200;" xml:space="preserve">
<style type="text/css">
	.st0{fill:#E53A35;}
	.st1{fill:#FFFFFF;stroke:#FFFFFF;stroke-width:0.75;stroke-miterlimit:10;}
	.st2{fill:#FFFFFF;}
	.st3{clip-path:url(#SVGID_2_);}
	.st4{fill:none;stroke:#FFFFFF;stroke-width:5;stroke-miterlimit:10;}
	.st5{fill:none;stroke:#FFFFFF;stroke-width:4;stroke-miterlimit:10;}
	.st6{fill:none;stroke:#FFFFFF;stroke-width:6;stroke-miterlimit:10;}
</style>
<path class="st0" d="M185.75,199.96H14.34c-7.86,0-14.24-6.37-14.24-14.24V14.32c0-7.86,6.37-14.24,14.24-14.24h171.41
	c7.86,0,14.24,6.37,14.24,14.24v171.41C199.98,193.59,193.61,199.96,185.75,199.96z"/>
<path class="st1" d="M37.46,122.26c-0.06-11.31-0.35-23.05-0.92-35.2c-0.27-5.75-0.59-11.39-0.97-16.92
	c0.03-0.28,0.13-1.55-0.56-2.6c-0.31-0.47-0.66-0.73-0.9-0.87c-0.01-0.14-0.04-1,0.48-1.7c0.33-0.44,0.79-0.72,1.31-0.72h6.54
	c1.04,0,1.86,1.11,1.79,2.42c-0.21,0.11-0.78,0.46-1.18,1.25c-0.46,0.92-0.41,1.85-0.38,2.12c-0.45,6.79-0.76,12.65-0.98,17.3
	c-0.26,5.48-0.61,13-0.78,22.85c-0.08,4.84-0.1,8.93-0.1,11.95c0,2.52-0.93,4.23-1.63,4.24C38.5,126.38,37.55,124.73,37.46,122.26z"
	/>
<path class="st2" d="M55.6,62.08"/>
<g>
	<g>
		<path class="st2" d="M32.77,68.94c-1.16-1.77-2.75-3.37-4.92-3.72c-2.2-0.36-4.29,0.74-5.42,2.63c-2.35,3.88-0.7,9.13,2.33,12.12
			c2.74,2.7,6.51,3.64,10.22,3.98c3.75,0.35,8.71,0.2,11.21,3.59c1.03,1.4,1.52,3.7-0.09,4.92c-1.72,1.3-4.56,0.13-6.4-0.31
			c-2.2-0.53-4.53-0.89-6.71-0.07c-1.95,0.73-3.49,2.39-3.29,4.58c0.18,2.02,1.86,3.8,3.39,4.99c1.54,1.19,3.32,1.98,5.19,2.51
			c0.83,0.24,1.68,0.42,2.53,0.58c0.75,0.15,2.19,0.14,2.66,0.84c1.13,1.66-2.57,2.26-3.46,2.25c-2.36-0.04-4.71-0.68-7.02,0.15
			c-2.31,0.83-4.2,3.15-2.91,5.65c1.07,2.07,3.74,3.09,5.86,3.62c2.2,0.56,4.51,0.75,6.5,1.93c2.08,1.24,3.97-2,1.89-3.24
			c-1.66-0.98-3.47-1.47-5.34-1.86c-1.74-0.36-3.68-0.65-5.14-1.75c-0.57-0.43-0.5-0.48,0.19-0.77c0.9-0.38,1.94-0.31,2.89-0.24
			c1.85,0.13,3.63,0.43,5.47,0.03c3.88-0.82,6.96-5.65,3.36-8.78c-1.45-1.27-3.53-1.32-5.33-1.73c-1.55-0.36-3.06-0.82-4.41-1.67
			c-0.74-0.46-3.28-2.36-2.36-3.28c1.19-1.19,3.87-0.41,5.23-0.07c3.9,0.96,8.63,1.91,11.07-2.23c2.14-3.63,0.24-8-2.89-10.32
			c-3.3-2.45-7.41-2.69-11.35-3c-3.53-0.28-7.41-1.1-9.45-4.31c-1.07-1.69-1.68-3.98-0.81-5.89c1.04-2.28,3.12-0.64,4.05,0.77
			C30.85,72.85,34.09,70.97,32.77,68.94L32.77,68.94z"/>
	</g>
</g>
<g>
	<g>
		<path class="st2" d="M47.51,70.84c0.72-1.1,2.32-2.81,3.61-1.44c1.23,1.3,0.94,3.65,0.35,5.17c-1.28,3.3-4.46,4.84-7.75,5.42
			c-3.68,0.65-7.47,0.31-11,1.75c-3.57,1.45-6.86,4.73-6.57,8.87c0.14,2.04,1.18,3.96,2.89,5.09c1.84,1.22,4.07,1.17,6.15,0.8
			c1.98-0.35,3.92-1.16,5.94-1.17c0.66,0,1.71,0.06,2.21,0.56c0.51,0.52-0.05,1.1-0.45,1.59c-2.19,2.67-5.68,3.23-8.87,3.86
			c-1.99,0.39-3.77,1.56-4.26,3.64c-0.5,2.12,0.64,4.07,2.33,5.27c1.61,1.15,3.67,1.42,5.61,1.28c1.14-0.08,2.27-0.27,3.41-0.27
			c0.43,0,2.34,0.05,2.47,0.68c0.06,0.28-1.47,1.01-1.79,1.15c-0.9,0.38-1.88,0.59-2.84,0.79c-2.19,0.47-4.33,0.89-6.28,2.05
			c-2.07,1.23-0.19,4.48,1.89,3.24c3.56-2.12,8.26-1.35,11.44-4.35c1.66-1.56,1.75-4.04,0.1-5.65c-1.61-1.57-4.13-1.77-6.24-1.6
			c-1.7,0.14-3.68,0.62-5.28-0.18c-0.57-0.29-1.45-0.97-1.11-1.71c0.36-0.78,1.85-0.78,2.57-0.92c3.8-0.73,7.51-2.03,9.94-5.2
			c1.36-1.77,1.93-3.98,0.42-5.86c-1.32-1.65-3.66-2.22-5.69-2.12c-2.31,0.12-4.47,1-6.74,1.33c-1.98,0.29-4.08-0.39-4.1-2.71
			c-0.05-4.4,5.66-5.7,9.01-6c3.85-0.35,7.82-0.46,11.22-2.54c4.02-2.47,6.72-7.66,5.16-12.34c-0.77-2.31-2.69-4.17-5.23-4.18
			c-2.53-0.01-4.47,1.81-5.77,3.8C42.94,70.97,46.19,72.85,47.51,70.84L47.51,70.84z"/>
	</g>
</g>
<g>
	<defs>
		<path id="SVGID_1_" d="M185.71,199.9H14.44c-7.88,0-14.27-6.39-14.27-14.27V14.37C0.17,6.48,6.56,0.1,14.44,0.1h171.27
			c7.88,0,14.27,6.39,14.27,14.27v171.27C199.98,193.52,193.59,199.9,185.71,199.9z"/>
	</defs>
	<clipPath id="SVGID_2_">
		<use xlink:href="#SVGID_1_"  style="overflow:visible;"/>
	</clipPath>
	<g class="st3">
		<circle class="st2" cx="127.9" cy="-19.49" r="11.29"/>
		<line class="st4" x1="127.72" y1="-15.5" x2="122.87" y2="17.64"/>
		<g>
			<circle class="st2" cx="213.19" cy="190.68" r="8.11"/>
			<line class="st5" x1="197.48" y1="161.51" x2="213.19" y2="190.68"/>
			<g>
				<circle class="st2" cx="260.13" cy="119.47" r="8.11"/>
				<line class="st5" x1="227.7" y1="113.27" x2="260.26" y2="119.38"/>
				<g>
					<polygon class="st6" points="118.47,110.4 143.29,156.47 195.59,158.01 223.08,113.48 198.26,67.42 145.95,65.88 					"/>
					<circle class="st2" cx="145.09" cy="153.87" r="14.38"/>
					<circle class="st2" cx="121.15" cy="111.32" r="14.38"/>
					<circle class="st2" cx="221.91" cy="111.32" r="14.38"/>
					<circle class="st2" cx="199.42" cy="69.58" r="14.38"/>
					<circle class="st2" cx="194.38" cy="155.75" r="14.38"/>
					<circle class="st2" cx="147.17" cy="68.13" r="14.38"/>
					<circle class="st2" cx="130.62" cy="189.8" r="8.11"/>
					<line class="st5" x1="142.62" y1="159.04" x2="130.48" y2="189.87"/>
					<circle class="st2" cx="213.84" cy="34.32" r="8.11"/>
					<line class="st5" x1="201.84" y1="65.08" x2="213.98" y2="34.26"/>
					<circle class="st2" cx="121.15" cy="26.87" r="14.53"/>
					<circle class="st2" cx="73.5" cy="16.64" r="11.29"/>
					<circle class="st2" cx="66.34" cy="48.28" r="8.2"/>
					<line class="st4" x1="79.53" y1="18.84" x2="112.36" y2="25.47"/>
					<line class="st4" x1="72.83" y1="15.53" x2="66.21" y2="48.37"/>
					<line class="st6" x1="125.5" y1="32.37" x2="143.53" y2="64.84"/>
					<circle class="st2" cx="77.45" cy="128.17" r="11.94"/>
					<line class="st6" x1="81.17" y1="126.16" x2="113.84" y2="112.48"/>
					<line class="st6" x1="62.75" y1="166.5" x2="73.66" y2="132.81"/>
					<circle class="st2" cx="61.77" cy="172.17" r="14.38"/>
					<circle class="st2" cx="95.56" cy="204.61" r="11.94"/>
					<line class="st6" x1="92.16" y1="202.09" x2="65.92" y2="178.29"/>
					<circle class="st2" cx="21.03" cy="190.92" r="14.38"/>
					<line class="st6" x1="60.31" y1="174.31" x2="27.14" y2="186.76"/>
					<line class="st5" x1="18.7" y1="194.43" x2="23.36" y2="227.59"/>
					<line class="st5" x1="17.35" y1="194.81" x2="-8.76" y2="215.78"/>
					<line class="st5" x1="-16.97" y1="181.1" x2="15.58" y2="189.02"/>
					<circle class="st2" cx="23.32" cy="228.99" r="8.11"/>
					<circle class="st2" cx="-10.05" cy="216.81" r="8.11"/>
					<circle class="st2" cx="-15.59" cy="180.53" r="8.11"/>
				</g>
			</g>
		</g>
	</g>
</g>
</svg>
