<?xml version="1.0" encoding="utf-8"?>
<!-- Generator: Adobe Illustrator 25.2.0, SVG Export Plug-In . SVG Version: 6.00 Build 0)  -->
<svg version="1.1" id="Layer_1" xmlns="http://www.w3.org/2000/svg" xmlns:xlink="http://www.w3.org/1999/xlink" x="0px" y="0px"
	 viewBox="0 0 200 200" style="enable-background:new 0 0 200 200;" xml:space="preserve">
<style type="text/css">
	.st0{fill:#E53A35;}
	.st1{fill:#FFFFFF;}
	.st2{fill:none;stroke:#FFFFFF;stroke-width:2.5;stroke-miterlimit:10;}
	.st3{fill:none;stroke:#E53A35;stroke-width:4;stroke-miterlimit:10;}
	.st4{fill:#E53A35;stroke:#E53A35;stroke-miterlimit:10;}
</style>
<path class="st0" d="M186.96,199.8H13.43c-7.2,0-13.04-5.84-13.04-13.04V13.24c0-7.2,5.84-13.04,13.04-13.04h173.52
	c7.2,0,13.04,5.84,13.04,13.04v173.52C200,193.96,194.16,199.8,186.96,199.8z"/>
<path class="st1" d="M125.86,184.89H74.08c-6.34,0-11.48-5.14-11.48-11.48V87.67h74.74v85.74
	C137.33,179.75,132.2,184.89,125.86,184.89z"/>
<path class="st1" d="M136.19,74.25L87.64,25.7c-3.16-3.16-3.16-8.29,0-11.46l0,0c3.16-3.16,8.29-3.16,11.46,0l48.55,48.55
	c3.16,3.16,3.16,8.29,0,11.46l0,0C144.49,77.41,139.36,77.41,136.19,74.25z"/>
<g>
	<circle class="st1" cx="76.11" cy="57.76" r="4.68"/>
	
		<ellipse transform="matrix(0.5159 -0.8567 0.8567 0.5159 -12.5709 93.2775)" class="st2" cx="76.24" cy="57.76" rx="8.56" ry="22.66"/>
	<ellipse class="st2" cx="76.11" cy="57.25" rx="8.56" ry="22.66"/>
	
		<ellipse transform="matrix(0.833 -0.5533 0.5533 0.833 -19.2466 51.7553)" class="st2" cx="76.11" cy="57.76" rx="22.66" ry="8.56"/>
</g>
<path class="st3" d="M163.13,154.68h-46.09c-7.06,0-12.78-5.72-12.78-12.78v-31.59c0-7.06,5.72-12.78,12.78-12.78h46.09
	c7.06,0,12.78,5.72,12.78,12.78v31.59C175.91,148.95,170.19,154.68,163.13,154.68z"/>
<path class="st4" d="M163.12,108.61h-46.08c-0.7,0-1.27,0.57-1.27,1.27v0.23c0,0.7,0.57,1.27,1.27,1.27h46.08
	c0.7,0,1.27-0.57,1.27-1.27v-0.23C164.39,109.18,163.82,108.61,163.12,108.61z"/>
<path class="st4" d="M163.12,118.81h-46.08c-0.7,0-1.27,0.57-1.27,1.27v0.23c0,0.7,0.57,1.27,1.27,1.27h46.08
	c0.7,0,1.27-0.57,1.27-1.27v-0.23C164.39,119.38,163.82,118.81,163.12,118.81z"/>
</svg>
