<?xml version="1.0" encoding="utf-8"?>
<!-- Generator: Adobe Illustrator 25.2.0, SVG Export Plug-In . SVG Version: 6.00 Build 0)  -->
<svg version="1.1" id="Layer_1" xmlns="http://www.w3.org/2000/svg" xmlns:xlink="http://www.w3.org/1999/xlink" x="0px" y="0px"
	 viewBox="0 0 200 200" style="enable-background:new 0 0 200 200;" xml:space="preserve">
<style type="text/css">
	.st0{fill:#E53A35;}
	.st1{fill:#FFFFFF;}
	.st2{fill:#FFFFFF;stroke:#FFFFFF;stroke-miterlimit:10;}
	.st3{fill:none;stroke:#FFFFFF;stroke-miterlimit:10;}
</style>
<path class="st0" d="M185.75,200H14.25C6.38,200,0,193.62,0,185.75V14.25C0,6.38,6.38,0,14.25,0h171.51C193.62,0,200,6.38,200,14.25
	v171.51C200,193.62,193.62,200,185.75,200z"/>
<path class="st1" d="M156.82,60.68c8.69-9.58,7.97-24.4-1.61-33.1c-9.58-8.69-24.4-7.97-33.1,1.61L90.75,63.77l34.71,31.48
	L156.82,60.68z"/>
<path class="st1" d="M77.75,109.66v46.69c0,12.94,10.49,23.43,23.43,23.43s23.43-10.49,23.43-23.43v-46.69H77.75z"/>
<g>
	<circle class="st2" cx="75.86" cy="96.22" r="1.76"/>
	<line class="st3" x1="72.44" y1="89.88" x2="75.86" y2="96.22"/>
	<g>
		<circle class="st2" cx="57.3" cy="50.5" r="2.46"/>
		<line class="st3" x1="57.26" y1="51.37" x2="56.21" y2="58.58"/>
		<g>
			<circle class="st2" cx="86.07" cy="80.73" r="1.76"/>
			<line class="st3" x1="79.01" y1="79.38" x2="86.09" y2="80.71"/>
			<g>
				<polygon class="st3" points="55.25,78.76 60.65,88.78 72.03,89.11 78.01,79.43 72.61,69.41 61.23,69.07 				"/>
				<circle class="st2" cx="61.04" cy="88.21" r="3.13"/>
				<circle class="st2" cx="55.83" cy="78.96" r="3.13"/>
				<circle class="st2" cx="77.75" cy="78.96" r="3.13"/>
				<circle class="st2" cx="72.86" cy="69.88" r="3.13"/>
				<circle class="st2" cx="71.76" cy="88.62" r="3.13"/>
				<circle class="st2" cx="61.49" cy="69.56" r="3.13"/>
				<circle class="st2" cx="57.89" cy="96.03" r="1.76"/>
				<line class="st3" x1="60.5" y1="89.34" x2="57.86" y2="96.04"/>
				<circle class="st2" cx="76" cy="62.21" r="1.76"/>
				<line class="st3" x1="73.39" y1="68.9" x2="76.03" y2="62.2"/>
				<circle class="st2" cx="55.83" cy="60.59" r="3.16"/>
				<circle class="st2" cx="45.47" cy="58.36" r="2.46"/>
				<circle class="st2" cx="43.91" cy="65.25" r="1.78"/>
				<line class="st3" x1="46.78" y1="58.84" x2="53.92" y2="60.28"/>
				<line class="st3" x1="45.32" y1="58.12" x2="43.88" y2="65.27"/>
				<line class="st3" x1="56.78" y1="61.79" x2="60.7" y2="68.85"/>
				<circle class="st2" cx="46.33" cy="82.62" r="2.6"/>
				<line class="st3" x1="47.14" y1="82.19" x2="54.25" y2="79.21"/>
				<line class="st3" x1="43.13" y1="90.96" x2="45.5" y2="83.63"/>
				<circle class="st2" cx="42.92" cy="92.2" r="3.13"/>
				<circle class="st2" cx="50.27" cy="99.25" r="2.6"/>
				<line class="st3" x1="49.53" y1="98.7" x2="43.82" y2="93.53"/>
				<circle class="st2" cx="34.06" cy="96.27" r="3.13"/>
				<line class="st3" x1="42.6" y1="92.66" x2="35.39" y2="95.37"/>
				<line class="st3" x1="33.55" y1="97.04" x2="34.56" y2="104.25"/>
				<line class="st3" x1="33.26" y1="97.12" x2="27.57" y2="101.68"/>
				<line class="st3" x1="25.79" y1="94.14" x2="32.87" y2="95.86"/>
				<circle class="st2" cx="34.55" cy="104.55" r="1.76"/>
				<circle class="st2" cx="27.29" cy="101.91" r="1.76"/>
				<circle class="st2" cx="26.09" cy="94.01" r="1.76"/>
			</g>
		</g>
	</g>
</g>
</svg>
