<?xml version="1.0" encoding="utf-8"?>
<!-- Generator: Adobe Illustrator 25.2.0, SVG Export Plug-In . SVG Version: 6.00 Build 0)  -->
<svg version="1.1" id="Layer_1" xmlns="http://www.w3.org/2000/svg" xmlns:xlink="http://www.w3.org/1999/xlink" x="0px" y="0px"
	 viewBox="0 0 200 200" style="enable-background:new 0 0 200 200;" xml:space="preserve">
<style type="text/css">
	.st0{fill:#E53A35;}
	.st1{fill:#FFFFFF;}
	.st2{fill:#FFFFFF;stroke:#FFFFFF;stroke-miterlimit:10;}
	.st3{fill:none;stroke:#FFFFFF;stroke-miterlimit:10;}
	.st4{fill:none;stroke:#E53A35;stroke-width:4;stroke-miterlimit:10;}
	.st5{fill:#E53A35;stroke:#E53A35;stroke-width:2;stroke-miterlimit:10;}
</style>
<path class="st0" d="M186.96,200H13.04C5.84,200,0,194.16,0,186.96V13.04C0,5.84,5.84,0,13.04,0h173.91C194.16,0,200,5.84,200,13.04
	v173.91C200,194.16,194.16,200,186.96,200z"/>
<path class="st1" d="M126.73,186.68H74.81c-6.34,0-11.48-5.14-11.48-11.48V89.27h74.88v85.94
	C138.21,181.54,133.07,186.68,126.73,186.68z"/>
<path class="st1" d="M137.55,76.31L87.93,26.69c-2.9-2.9-2.9-7.61,0-10.51l0.97-0.97c2.9-2.9,7.61-2.9,10.51,0l49.62,49.62
	c2.9,2.9,2.9,7.61,0,10.51l-0.97,0.97C145.16,79.21,140.45,79.21,137.55,76.31z"/>
<g>
	<circle class="st2" cx="87.66" cy="74.89" r="1.76"/>
	<line class="st3" x1="84.24" y1="68.55" x2="87.66" y2="74.89"/>
	<g>
		<circle class="st2" cx="69.1" cy="29.17" r="2.46"/>
		<line class="st3" x1="69.06" y1="30.04" x2="68.01" y2="37.25"/>
		<g>
			<circle class="st2" cx="97.87" cy="59.4" r="1.76"/>
			<line class="st3" x1="90.81" y1="58.05" x2="97.9" y2="59.38"/>
			<g>
				<polygon class="st3" points="67.05,57.43 72.45,67.45 83.83,67.78 89.81,58.1 84.41,48.08 73.03,47.74 				"/>
				<circle class="st2" cx="72.84" cy="66.88" r="3.13"/>
				<circle class="st2" cx="67.64" cy="57.63" r="3.13"/>
				<circle class="st2" cx="89.55" cy="57.63" r="3.13"/>
				<circle class="st2" cx="84.66" cy="48.55" r="3.13"/>
				<circle class="st2" cx="83.56" cy="67.29" r="3.13"/>
				<circle class="st2" cx="73.3" cy="48.23" r="3.13"/>
				<circle class="st2" cx="69.7" cy="74.7" r="1.76"/>
				<line class="st3" x1="72.31" y1="68.01" x2="69.66" y2="74.71"/>
				<circle class="st2" cx="87.8" cy="40.88" r="1.76"/>
				<line class="st3" x1="85.19" y1="47.57" x2="87.83" y2="40.87"/>
				<circle class="st2" cx="67.64" cy="39.26" r="3.16"/>
				<circle class="st2" cx="57.27" cy="37.03" r="2.46"/>
				<circle class="st2" cx="55.71" cy="43.92" r="1.78"/>
				<line class="st3" x1="58.58" y1="37.51" x2="65.72" y2="38.95"/>
				<line class="st3" x1="57.13" y1="36.79" x2="55.68" y2="43.94"/>
				<line class="st3" x1="68.58" y1="40.46" x2="72.5" y2="47.52"/>
				<circle class="st2" cx="58.13" cy="61.29" r="2.6"/>
				<line class="st3" x1="58.94" y1="60.86" x2="66.05" y2="57.88"/>
				<line class="st3" x1="54.93" y1="69.63" x2="57.31" y2="62.3"/>
				<circle class="st2" cx="54.72" cy="70.87" r="3.13"/>
				<circle class="st2" cx="62.07" cy="77.92" r="2.6"/>
				<line class="st3" x1="61.33" y1="77.37" x2="55.62" y2="72.2"/>
				<circle class="st2" cx="45.86" cy="74.94" r="3.13"/>
				<line class="st3" x1="54.4" y1="71.33" x2="47.19" y2="74.04"/>
				<line class="st3" x1="45.35" y1="75.71" x2="46.36" y2="82.92"/>
				<line class="st3" x1="45.06" y1="75.79" x2="39.38" y2="80.35"/>
				<line class="st3" x1="37.59" y1="72.81" x2="44.67" y2="74.53"/>
				<circle class="st2" cx="46.35" cy="83.22" r="1.76"/>
				<circle class="st2" cx="39.1" cy="80.58" r="1.76"/>
				<circle class="st2" cx="37.89" cy="72.68" r="1.76"/>
			</g>
		</g>
	</g>
</g>
<path class="st4" d="M141.6,162.43H95.37c-7.06,0-12.78-5.72-12.78-12.78v-31.7c0-7.06,5.72-12.78,12.78-12.78h46.23
	c7.06,0,12.78,5.72,12.78,12.78v31.7C154.38,156.71,148.66,162.43,141.6,162.43z"/>
<path class="st5" d="M126.77,130.68H99.34c-0.7,0-1.27,0.57-1.27,1.27v0.23c0,0.7,0.57,1.27,1.27,1.27h27.43
	c0.7,0,1.27-0.57,1.27-1.27v-0.23C128.04,131.25,127.47,130.68,126.77,130.68z"/>
<path class="st5" d="M111.67,118.36v27.43c0,0.7,0.57,1.27,1.27,1.27h0.23c0.7,0,1.27-0.57,1.27-1.27v-27.43
	c0-0.7-0.57-1.27-1.27-1.27h-0.23C112.24,117.08,111.67,117.65,111.67,118.36z"/>
</svg>
